<?xml version="1.0" encoding="iso-8859-1"?>
<!-- Generator: Adobe Illustrator 16.0.0, SVG Export Plug-In . SVG Version: 6.00 Build 0)  -->
<!DOCTYPE svg PUBLIC "-//W3C//DTD SVG 1.1//EN" "http://www.w3.org/Graphics/SVG/1.1/DTD/svg11.dtd">
<svg version="1.1" id="Capa_1" xmlns="http://www.w3.org/2000/svg" xmlns:xlink="http://www.w3.org/1999/xlink" x="0px" y="0px"
	 width="381.418px" height="381.418px" viewBox="0 0 381.418 381.418" style="enable-background:new 0 0 381.418 381.418;"
	 xml:space="preserve">
<g>
	<g>
		<g>
			<path d="M297,157.394V25.188c0-7.456-6.044-13.5-13.5-13.5h-270c-7.456,0-13.5,6.044-13.5,13.5v270c0,7.456,6.044,13.5,13.5,13.5
				h155.582c7.456,0,13.5-6.044,13.5-13.5c0,0,0-100.52,0-106.146c0-8.499,6.893-18.148,19.061-18.148c20,0,81.857,0,81.857,0
				C290.956,170.894,297,164.85,297,157.394z"/>
			<path d="M367.918,193.894H219.082c-7.456,0-13.5,6.044-13.5,13.5V356.23c0,7.455,6.044,13.5,13.5,13.5h148.836
				c7.456,0,13.5-6.045,13.5-13.5V207.394C381.418,199.938,375.374,193.894,367.918,193.894z M268.541,230.772h75.998v75.998
				L268.541,230.772z M242.462,332.85v-75.998l75.997,75.998H242.462z"/>
		</g>
	</g>
</g>
<g>
</g>
<g>
</g>
<g>
</g>
<g>
</g>
<g>
</g>
<g>
</g>
<g>
</g>
<g>
</g>
<g>
</g>
<g>
</g>
<g>
</g>
<g>
</g>
<g>
</g>
<g>
</g>
<g>
</g>
</svg>
